<?xml version="1.0" standalone="no"?>
<!DOCTYPE svg PUBLIC "-//W3C//DTD SVG 20010904//EN"
 "http://www.w3.org/TR/2001/REC-SVG-20010904/DTD/svg10.dtd">
<svg version="1.0" xmlns="http://www.w3.org/2000/svg"
 width="2000.000000pt" height="2000.000000pt" viewBox="0 0 2000.000000 2000.000000"
 preserveAspectRatio="xMidYMid meet">

<g transform="translate(0.000000,2000.000000) scale(0.100000,-0.100000)"
fill="#000000" stroke="none">
<path d="M9535 19989 c-1010 -52 -1963 -239 -2880 -566 -1628 -581 -3031
-1533 -4180 -2840 -866 -985 -1545 -2168 -1960 -3419 -840 -2531 -645 -5266
547 -7649 369 -737 871 -1483 1416 -2105 292 -332 686 -720 1037 -1020 965
-825 2122 -1479 3325 -1877 2061 -683 4259 -683 6320 0 701 232 1450 582 2080
970 1022 630 1943 1459 2671 2402 1186 1539 1890 3351 2054 5290 113 1336 -52
2705 -481 3992 -700 2100 -2093 3925 -3934 5150 -1300 865 -2751 1407 -4290
1602 -554 71 -1200 97 -1725 70z m-505 -6274 l0 -1845 -1581 0 c-912 0 -1579
-4 -1577 -9 6 -18 4123 -6321 4128 -6321 5 0 4122 6303 4128 6321 2 5 -669 9
-1577 9 l-1581 0 0 1845 0 1845 3666 0 c2254 0 3664 -4 3662 -9 -8 -23 -8294
-14931 -8298 -14931 -4 0 -8290 14908 -8298 14931 -2 5 1408 9 3662 9 l3666 0
0 -1845z"/>
</g>
</svg>
